<svg xmlns="http://www.w3.org/2000/svg" width="64.232" height="63.555" viewBox="0 0 64.232 63.555">
  <g id="Retrolamps_logo" transform="translate(-49.127 -226.891)">
    <g id="Group_18" data-name="Group 18" transform="translate(75.549 280.504)">
      <rect id="Rectangle_8" data-name="Rectangle 8" width="11.189" height="3.514" fill="#fff"/>
    </g>
    <g id="Group_19" data-name="Group 19" transform="translate(78.057 274.158)">
      <rect id="Rectangle_9" data-name="Rectangle 9" width="6.177" height="3.514" fill="#fff"/>
    </g>
    <g id="Group_20" data-name="Group 20" transform="translate(78.057 286.932)">
      <rect id="Rectangle_10" data-name="Rectangle 10" width="6.177" height="3.514" fill="#fff"/>
    </g>
    <g id="Group_21" data-name="Group 21" transform="translate(65.22 242.867)">
      <path id="Path_24" data-name="Path 24" d="M68.486,233.815a12.411,12.411,0,1,1-12.411,12.411,12.423,12.423,0,0,1,12.411-12.411m0-3.514a15.924,15.924,0,1,0,15.924,15.924A15.926,15.926,0,0,0,68.486,230.3Z" transform="translate(-52.562 -230.301)" fill="#fff"/>
    </g>
    <g id="Group_32" data-name="Group 32" transform="translate(49.127 226.891)">
      <g id="Group_22" data-name="Group 22" transform="translate(6.358 42.657)">
        <path id="Path_25" data-name="Path 25" d="M57.422,241.309l.993,1.148,1.977-1.715,1.818,2.108-7.435,6.442-2.947-3.406a5.687,5.687,0,0,1-1.181-2.047,3.579,3.579,0,0,1,2.806-4.484,3.4,3.4,0,0,1,1.879.267L56.279,236l1.949,2.249Zm-4.385,2.043a1.955,1.955,0,0,0,.562,1.228l1.012,1.171,2.174-1.893-1.007-1.167a1.952,1.952,0,0,0-1.129-.731,1.311,1.311,0,0,0-1.087.365A1.352,1.352,0,0,0,53.037,243.351Z" transform="translate(-50.484 -235.996)" fill="#fff"/>
      </g>
      <g id="Group_23" data-name="Group 23" transform="translate(0.023 32.668)">
        <path id="Path_26" data-name="Path 26" d="M56.591,234.337l2.094-.473,1.738,7.7-9.595,2.164-1.7-7.524,2.094-.473,1.092,4.835,1.616-.361-.956-4.263L55,235.485l.965,4.268,1.757-.4Z" transform="translate(-49.132 -233.864)" fill="#fff"/>
      </g>
      <g id="Group_24" data-name="Group 24" transform="translate(0 19.916)">
        <path id="Path_27" data-name="Path 27" d="M52,237.3l-.736,2.928-2.136-.539,2.146-8.546,2.141.539-.736,2.914,7.4,1.865-.679,2.7Z" transform="translate(-49.127 -231.142)" fill="#fff"/>
      </g>
      <g id="Group_25" data-name="Group 25" transform="translate(5.355 8.754)">
        <path id="Path_28" data-name="Path 28" d="M58.525,235.48l-1,1.129,1.949,1.738-1.851,2.085-7.351-6.545,2.989-3.364a5.62,5.62,0,0,1,1.874-1.434,3.454,3.454,0,0,1,1.954-.3,3.494,3.494,0,0,1,1.8.89,3.4,3.4,0,0,1,1.059,1.6,3.441,3.441,0,0,1-.019,1.9l3.72.468-1.982,2.23Zm-2.6-4.081a1.943,1.943,0,0,0-1.138.712l-1.031,1.152,2.155,1.916,1.026-1.157a1.89,1.89,0,0,0,.581-1.209,1.515,1.515,0,0,0-1.593-1.415Z" transform="translate(-50.27 -228.76)" fill="#fff"/>
      </g>
      <g id="Group_26" data-name="Group 26" transform="translate(18.636 0.938)">
        <path id="Path_29" data-name="Path 29" d="M57.224,237.364a4.977,4.977,0,0,1-2.413-1.167,4.9,4.9,0,0,1-1.457-2.3,4.956,4.956,0,0,1-.108-2.722,5.022,5.022,0,0,1,1.321-2.324,6.3,6.3,0,0,1,5.355-1.668,4.946,4.946,0,0,1,3.87,3.462,4.927,4.927,0,0,1-1.218,5.046,6.28,6.28,0,0,1-5.35,1.673Zm3.369-3.144a2.511,2.511,0,0,0,.618-1.228,2.993,2.993,0,0,0-.1-1.509,3.063,3.063,0,0,0-.768-1.3,2.487,2.487,0,0,0-1.213-.661,2.571,2.571,0,0,0-1.391.066,2.654,2.654,0,0,0-1.185.736,2.5,2.5,0,0,0-.614,1.228,2.993,2.993,0,0,0,.1,1.509,3.025,3.025,0,0,0,.773,1.3,2.568,2.568,0,0,0,1.209.66,2.662,2.662,0,0,0,1.391-.066A2.59,2.59,0,0,0,60.592,234.221Z" transform="translate(-53.105 -227.091)" fill="#fff"/>
      </g>
      <g id="Group_27" data-name="Group 27" transform="translate(33.278)">
        <path id="Path_30" data-name="Path 30" d="M58.235,226.891l2.722.567-1.551,7.477,4.591.956-.45,2.16-7.318-1.527Z" transform="translate(-56.23 -226.891)" fill="#fff"/>
      </g>
      <g id="Group_28" data-name="Group 28" transform="translate(41.762 6.545)">
        <path id="Path_31" data-name="Path 31" d="M65.228,236.562l-3.19-2.67-1.818.965-2.179-1.823,9.656-4.746,2.1,1.762-2.989,10.34-2.216-1.865Zm.693-2.094,1.054-3.223-2.989,1.6Z" transform="translate(-58.041 -228.288)" fill="#fff"/>
      </g>
      <g id="Group_29" data-name="Group 29" transform="translate(51.558 17.4)">
        <path id="Path_32" data-name="Path 32" d="M62.648,241.91l4.994-1.5-4.788-1.223L62.5,238l3.223-3.579-4.863,1.438-.731-2.464,9.436-2.788.647,2.2-4.465,4.924,6.4,1.626.651,2.2-9.431,2.816Z" transform="translate(-60.132 -230.605)" fill="#fff"/>
      </g>
      <g id="Group_30" data-name="Group 30" transform="translate(53.564 34.154)">
        <path id="Path_33" data-name="Path 33" d="M68.435,243.368a3.4,3.4,0,0,1-1.64,1.1,3.457,3.457,0,0,1-4.479-2.9,5.584,5.584,0,0,1,.225-2.352l.483-1.64-2.464-.726.778-2.675,9.445,2.769-1.265,4.32A5.456,5.456,0,0,1,68.435,243.368Zm-3.743-2.342a1.3,1.3,0,0,0,.89.712,1.339,1.339,0,0,0,1.148-.112,1.885,1.885,0,0,0,.726-1.134l.44-1.485-2.769-.811-.431,1.485A1.882,1.882,0,0,0,64.692,241.026Z" transform="translate(-60.56 -234.181)" fill="#fff"/>
      </g>
      <g id="Group_31" data-name="Group 31" transform="translate(46.123 44.878)">
        <path id="Path_34" data-name="Path 34" d="M62.42,237.234a5.753,5.753,0,0,1,1.841-.764l.829,2.09a6.208,6.208,0,0,0-2.961,1.649c-.745.764-.923,1.335-.539,1.705a.659.659,0,0,0,.768.112,9.1,9.1,0,0,0,1.331-.75,12.781,12.781,0,0,1,1.663-.975,3.106,3.106,0,0,1,1.513-.309,2.361,2.361,0,0,1,1.541.754,2.831,2.831,0,0,1,.825,1.49,3.231,3.231,0,0,1-.206,1.846,6.011,6.011,0,0,1-1.363,2.015,8.327,8.327,0,0,1-1.495,1.218,5.781,5.781,0,0,1-1.616.74L63.676,246a5.737,5.737,0,0,0,2.441-1.424,2.247,2.247,0,0,0,.665-1.04.733.733,0,0,0-.187-.717.643.643,0,0,0-.74-.089,7.955,7.955,0,0,0-1.3.754,14.956,14.956,0,0,1-1.668.974,3.169,3.169,0,0,1-1.518.309,2.328,2.328,0,0,1-1.541-.74,2.748,2.748,0,0,1-.806-1.471,3.362,3.362,0,0,1,.211-1.855,5.817,5.817,0,0,1,1.359-2.014A9.022,9.022,0,0,1,62.42,237.234Z" transform="translate(-58.972 -236.47)" fill="#fff"/>
      </g>
    </g>
    <g id="Group_33" data-name="Group 33" transform="translate(79.388 261.407)">
      <rect id="Rectangle_11" data-name="Rectangle 11" width="3.514" height="10.614" fill="#fff"/>
    </g>
    <g id="Group_34" data-name="Group 34" transform="translate(76.387 257.962)">
      <rect id="Rectangle_12" data-name="Rectangle 12" width="9.297" height="3.514" fill="#fff"/>
    </g>
  </g>
</svg>
